<?xml version="1.0" encoding="utf-8"?>
<!-- Generator: Adobe Illustrator 19.1.0, SVG Export Plug-In . SVG Version: 6.00 Build 0)  -->
<svg version="1.1" id="Isolation_Mode" xmlns="http://www.w3.org/2000/svg" xmlns:xlink="http://www.w3.org/1999/xlink" x="0px"
	 y="0px" viewBox="0 0 129.7 89.7" style="enable-background:new 0 0 129.7 89.7;" xml:space="preserve">
<style type="text/css">
	.st0{fill:#FFA400;}
</style>
<g>
	<path class="st0" d="M83.7,38.9L72.4,27.6c-0.2-0.2-0.6-0.2-0.8,0l-4.3,4.3c-0.2,0.2-0.2,0.6,0,0.8l11.1,11.1
		c0.9,0.9,0.9,2.4,0,3.3L66.2,59.2c-0.9,0.9-2.4,0.9-3.3,0L50.7,47c-0.9-0.9-0.9-2.2,0-3.1L89.9,4.8c0.2-0.2,0.2-0.6,0-0.8l0,0
		c-2.6-2.6-6.8-2.6-9.4,0L45.6,38.8c-3.7,3.7-3.7,9.7,0,13.4L58,64.5c3.6,3.6,9.5,3.6,13.1,0L83.7,52C87.3,48.4,87.3,42.5,83.7,38.9
		z M45.6,79.8c-0.9,0.9-2.2,0.9-3.1,0L9.6,47c-0.9-0.9-0.9-2.2,0-3.1L42.5,11c0.9-0.9,2.2-0.9,3.1,0l11.2,11.2
		c0.2,0.2,0.6,0.2,0.8,0l4.3-4.3c0.2-0.2,0.2-0.6,0-0.8L50.7,5.9c-3.7-3.7-9.7-3.7-13.4,0L4.5,38.8c-3.7,3.7-3.7,9.7,0,13.4L37.4,85
		c3.7,3.7,9.7,3.7,13.4,0l12.7-12.6c0.2-0.2,0.1-0.6-0.2-0.6c-3.6-0.6-5.6-3.1-5.6-3.1c-0.2-0.2-0.6-0.2-0.8,0L45.6,79.8z
		 M124.8,38.9L93,7c-0.2-0.2-0.6-0.2-0.8,0l-4.3,4.3c-0.2,0.2-0.2,0.6,0,0.8l31.7,31.7c0.9,0.9,0.9,2.2,0,3.1L86.7,79.8
		c-0.9,0.9-2.2,0.9-3.1,0L72.4,68.7c-0.2-0.2-0.6-0.2-0.8,0c0,0-2,2.5-5.6,3.1c-0.3,0-0.4,0.4-0.2,0.6L78.5,85
		c3.7,3.7,9.7,3.7,13.4,0l33-33C128.4,48.4,128.4,42.5,124.8,38.9z"/>
</g>
</svg>
