<svg id="Layer_1" data-name="Layer 1" xmlns="http://www.w3.org/2000/svg" viewBox="0 0 173.76 59.13"><defs><style>.cls-1{fill:#fff;}.cls-2{fill:#f76c23;}</style></defs><title>Artboard 1</title><polyline class="cls-1" points="169.85 50.64 171.49 45.04 173.55 45.04 170.79 53.32 170.79 58.94 168.85 58.94 168.85 53.32 166.09 45.04 168.15 45.04 169.85 50.64"/><path class="cls-1" d="M152.88,57.78c-.52.81-1.08,1.35-1.81,1.35-1.88,0-3.2-1.23-3.2-4.66v-5c0-3.42,1.32-4.66,3.2-4.66s3,1.56,3.12,4.72h-1.94c0-1.79-.48-2.37-1.18-2.37s-1.26.42-1.26,2v5.66c0,1.54.49,2,1.26,2s1.18-.73,1.18-1.92V54h-1.36v-2.2h3.3v7.12h-1l-.29-1.15"/><path class="cls-1" d="M129.13,49.5c0-3.43,1.32-4.66,3.2-4.66s3.2,1.23,3.2,4.66v5c0,3.43-1.32,4.66-3.2,4.66s-3.2-1.23-3.2-4.66v-5m1.93,5.31c0,1.54.49,2,1.26,2s1.26-.42,1.26-2V49.16c0-1.54-.49-2-1.26-2s-1.26.42-1.26,2Z"/><polyline class="cls-1" points="112.12 58.94 112.12 45.04 114.05 45.04 114.05 56.59 117.17 56.59 117.17 58.94 112.12 58.94"/><path class="cls-1" d="M93.2,49.5c0-3.43,1.32-4.66,3.2-4.66s3.2,1.23,3.2,4.66v5c0,3.43-1.32,4.66-3.2,4.66s-3.2-1.23-3.2-4.66v-5m1.94,5.31c0,1.54.49,2,1.26,2s1.26-.42,1.26-2V49.16c0-1.54-.49-2-1.26-2s-1.26.42-1.26,2Z"/><polyline class="cls-1" points="73.96 58.94 73.96 45.04 76.08 45.04 78.78 53.28 78.8 53.28 78.8 45.04 80.57 45.04 80.57 58.94 78.72 58.94 75.76 49.97 75.73 49.97 75.73 58.94 73.96 58.94"/><polyline class="cls-1" points="54.44 58.94 54.44 45.04 56.38 45.04 56.38 50.58 59.12 50.58 59.12 45.04 61.05 45.04 61.05 58.94 59.12 58.94 59.12 52.93 56.38 52.93 56.38 58.94 54.44 58.94"/><path class="cls-1" d="M37.35,54.82c0,1.54.49,2,1.26,2s1.26-.42,1.26-2v-.92h1.94v.58c0,3.43-1.32,4.66-3.2,4.66s-3.2-1.23-3.2-4.66v-5c0-3.43,1.32-4.66,3.2-4.66s3.2,1.23,3.2,4.66v0H39.88v-.38c0-1.54-.49-2-1.26-2s-1.26.42-1.26,2v5.66"/><polyline class="cls-1" points="18.09 58.94 18.09 45.04 23.39 45.04 23.39 47.39 20.02 47.39 20.02 50.58 22.59 50.58 22.59 52.93 20.02 52.93 20.02 56.59 23.53 56.59 23.53 58.94 18.09 58.94"/><polyline class="cls-1" points="6.46 45.04 6.46 47.39 4.2 47.39 4.2 58.94 2.26 58.94 2.26 47.39 0 47.39 0 45.04 6.46 45.04"/><path class="cls-1" d="M147.23,1.23h12.22c6.75,0,13.12,2.19,13.12,10.08,0,5.07-2.93,8.79-8.15,9.54l9.34,15.55h-7.55l-8.15-14.9h-4.57V36.4h-6.26V1.23m11.13,14.9c3.53,0,7.65-.3,7.65-4.87,0-4.17-3.87-4.67-7.1-4.67h-5.41v9.54Z"/><path class="cls-1" d="M123.53.33c11-.2,18.73,7.15,18.73,18.43,0,11-7.75,18.33-18.73,18.53C112.7,37.3,105,29.94,105,19,105,7.69,112.7.33,123.53.33m.05,31.3c7.3,0,12.12-5.56,12.12-13.06,0-7-4.82-12.57-12.12-12.57s-12.07,5.56-12.07,12.57c0,7.5,4.82,13.06,12.07,13.06"/><path class="cls-1" d="M98,9.48C95.37,6.74,93,6,90.55,6,83.3,6,78.48,11.56,78.48,18.57c0,7.5,4.82,13.06,12.07,13.06,2.83,0,5.56-1.29,7.9-4.27L103.61,31c-3.18,4.37-7.95,6.26-13.12,6.26C79.67,37.3,71.92,29.94,71.92,19,71.92,7.69,79.67.33,90.5.33A15.29,15.29,0,0,1,102.82,5.9L98,9.48"/><rect class="cls-1" x="60.84" y="1.23" width="6.26" height="35.17"/><polyline class="cls-2" points="49.18 35.48 0.06 38.56 3.8 29.8 49.18 35.48"/><polyline class="cls-2" points="12.61 27.14 14.98 21.7 49.18 28.24 12.61 27.14"/><polyline class="cls-2" points="21.27 18.6 22.99 14.89 49.36 20.5 21.27 18.6"/><polyline class="cls-2" points="29.3 12.27 49.18 12.89 30.4 9.59 29.3 12.27"/><polyline class="cls-2" points="49.18 6.13 36.64 6.73 37.58 4.69 49.18 6.13"/><polyline class="cls-2" points="42.03 1.64 49.18 1.09 42.97 0 42.03 1.64"/></svg>