<svg id="Layer_1" data-name="Layer 1" xmlns="http://www.w3.org/2000/svg" viewBox="0 0 338.66 149.76"><defs><style>.cls-1{fill:#cac9ca;}.cls-2{fill:#979699;}.cls-3{fill:#646569;}.cls-4{fill:#fff;}</style></defs><title>Artboard 1</title><path class="cls-1" d="M186.29,10.68a2.1,2.1,0,0,0-1.05-1.82L170.38.28a2.1,2.1,0,0,0-2.1,0L153.42,8.86a2.1,2.1,0,0,0-1.05,1.82V79.32a2.1,2.1,0,0,0,1.05,1.82l14.86,8.58a2.1,2.1,0,0,0,2.1,0l14.86-8.58a2.1,2.1,0,0,0,1.05-1.82Zm-29.72,1.21,10.66-6.15V84.26l-10.65-6.15Zm14.86,72.36V5.74l10.66,6.15V78.1Z"/><path class="cls-2" d="M201.15,36.42a2.1,2.1,0,0,0-1.05-1.82l-10.66-6.15V33.3l7.5,4.33V69.53l-7.51,4.33v4.85l10.66-6.15a2.1,2.1,0,0,0,1.05-1.82Zm-63.64,0V70.74a2.1,2.1,0,0,0,1.05,1.82l10.66,6.15V73.86l-7.5-4.33V37.63l7.5-4.33V28.45L138.56,34.6A2.1,2.1,0,0,0,137.51,36.42Z"/><path class="cls-3" d="M122.65,27.84V62.16A2.1,2.1,0,0,0,123.7,64l10.66,6.15V65.28l-7.5-4.33V29.05l22.36-12.91V11.29L123.7,26A2.1,2.1,0,0,0,122.65,27.84ZM215,26,189.45,11.29v4.85l22.36,12.91V60.95l-7.5,4.33v4.85L215,64A2.1,2.1,0,0,0,216,62.16V27.84A2.1,2.1,0,0,0,215,26Z"/><path class="cls-4" d="M0,149.21V123.83H18.05c5.54,0,10.37,2.25,10.37,9s-4.82,9-10.37,9H5.17v7.43Zm5.17-20.31v7.8H18.4c2.79,0,4.75-1,4.75-3.92s-2-3.88-4.75-3.88Z"/><path class="cls-4" d="M41.84,149.21V123.83H60.93c5.31,0,8.78,1.7,8.78,6.45a6,6,0,0,1-2.72,5.4,6.38,6.38,0,0,1,4.44,6.49c0,4.17-2.48,7-8.68,7ZM47,128.91v4.71H60.93c2.89,0,4-.65,4-2.36s-1.07-2.36-4-2.36Zm0,9.79v5.44H62.75c2.75,0,3.86-.87,3.86-2.76s-1.1-2.68-3.86-2.68Z"/><path class="cls-4" d="M114.55,147.72a35.88,35.88,0,0,1-12.26,2c-12.54,0-17.78-5.69-17.78-13.23s5.24-13.23,17.78-13.23a35.88,35.88,0,0,1,12.26,2l-1.17,4.9a37.54,37.54,0,0,0-11.09-1.85c-9.09,0-12.5,3.37-12.5,8.16s3.41,8.16,12.5,8.16a37.54,37.54,0,0,0,11.09-1.85Z"/><path class="cls-4" d="M144.19,137.46v-2h16.43v1.85c0,9.35-7.44,12.47-16.43,12.47-10.85,0-16.36-5.69-16.36-13.23s5.24-13.23,17.77-13.23a36.85,36.85,0,0,1,12.26,2l-.48,1.88a36.45,36.45,0,0,0-11.78-1.92c-11.16,0-15.71,4.79-15.71,11.24s4.82,11.2,14.3,11.2c8.3,0,14.4-2.83,14.4-9.79v-.47Z"/><path class="cls-4" d="M175.87,123.83H195c5.17,0,9.3,2.07,9.3,8.16s-4.27,8.12-9.4,8.09H192.1l13.19,9.14h-3.24l-12.92-9.06H177.91v9.06h-2Zm19,14.29c4,0,7.3-1.52,7.3-6.13s-3.13-6.16-7.17-6.16H177.91v12.29Z"/><path class="cls-4" d="M234.63,123.29c10.64,0,16.19,5.69,16.19,13.23s-5.55,13.23-16.19,13.23-16.19-5.69-16.19-13.23S224,123.29,234.63,123.29Zm0,24.44c9.4,0,14.12-4.79,14.12-11.2s-4.72-11.24-14.12-11.24-14.12,4.79-14.12,11.24S225.26,147.72,234.63,147.72Z"/><path class="cls-4" d="M292.62,123.83h2v15.23c0,7.51-4.82,10.7-14.47,10.7s-14.47-3.19-14.47-10.7V123.83h2v15.23c0,6.35,4.48,8.67,12.44,8.67s12.43-2.32,12.43-8.67Z"/><path class="cls-4" d="M310.25,149.21V123.83h18c5.55,0,10.37,2.25,10.37,9s-4.82,9-10.37,9h-16v7.43Zm2-23.39v13.92h16.15c4.48,0,8.16-1.74,8.16-7s-3.69-7-8.16-7Z"/></svg>