<svg id="Layer_1" data-name="Layer 1" xmlns="http://www.w3.org/2000/svg" viewBox="0 0 473.82 90"><defs><style>.cls-1{fill:#cac9ca;}.cls-2{fill:#979699;}.cls-3{fill:#646569;}.cls-4{fill:#fff;}</style></defs><title>Artboard 1</title><path class="cls-1" d="M63.64,10.68a2.1,2.1,0,0,0-1.05-1.82L47.73.28a2.1,2.1,0,0,0-2.1,0L30.77,8.86a2.1,2.1,0,0,0-1.05,1.82V79.32a2.1,2.1,0,0,0,1.05,1.82l14.86,8.58a2.1,2.1,0,0,0,2.1,0l14.86-8.58a2.1,2.1,0,0,0,1.05-1.82ZM33.92,11.89,44.58,5.74V84.26L33.92,78.11ZM48.78,84.26V5.74l10.66,6.15V78.1Z"/><path class="cls-2" d="M78.5,36.42a2.1,2.1,0,0,0-1.05-1.82L66.8,28.45V33.3l7.5,4.33V69.53L66.8,73.86v4.85l10.66-6.15a2.1,2.1,0,0,0,1.05-1.82Zm-63.64,0V70.74a2.1,2.1,0,0,0,1.05,1.82l10.66,6.15V73.86l-7.5-4.33V37.63l7.5-4.33V28.45L15.91,34.6A2.1,2.1,0,0,0,14.86,36.42Z"/><path class="cls-3" d="M0,27.84V62.16A2.1,2.1,0,0,0,1.05,64l10.66,6.15V65.28L4.2,60.94V29.05L26.57,16.14V11.29L1.05,26A2.1,2.1,0,0,0,0,27.84ZM92.31,26,66.8,11.29v4.85L89.16,29.06V60.95l-7.5,4.33v4.85L92.31,64a2.1,2.1,0,0,0,1.05-1.82V27.84A2.1,2.1,0,0,0,92.31,26Z"/><path class="cls-4" d="M135.15,57.69V32.31h18.05c5.54,0,10.37,2.25,10.37,9s-4.82,9-10.37,9H140.32v7.43Zm5.17-20.31v7.8h13.23c2.79,0,4.75-1,4.75-3.92s-2-3.88-4.75-3.88Z"/><path class="cls-4" d="M177,57.69V32.31h19.08c5.31,0,8.78,1.7,8.78,6.45a6,6,0,0,1-2.72,5.4,6.38,6.38,0,0,1,4.44,6.49c0,4.17-2.48,7-8.68,7Zm5.17-20.31V42.1h13.92c2.89,0,4-.65,4-2.36s-1.07-2.36-4-2.36Zm0,9.79v5.44H197.9c2.75,0,3.86-.87,3.86-2.76s-1.1-2.68-3.86-2.68Z"/><path class="cls-4" d="M249.7,56.2a35.88,35.88,0,0,1-12.26,2c-12.54,0-17.78-5.69-17.78-13.23s5.24-13.23,17.78-13.23a35.88,35.88,0,0,1,12.26,2l-1.17,4.9a37.54,37.54,0,0,0-11.09-1.85c-9.09,0-12.5,3.37-12.5,8.16s3.41,8.16,12.5,8.16a37.54,37.54,0,0,0,11.09-1.85Z"/><path class="cls-4" d="M279.35,45.94v-2h16.43v1.85c0,9.35-7.44,12.47-16.43,12.47C268.5,58.23,263,52.54,263,45s5.24-13.23,17.77-13.23a36.85,36.85,0,0,1,12.26,2l-.48,1.88a36.45,36.45,0,0,0-11.78-1.92c-11.16,0-15.71,4.79-15.71,11.24s4.82,11.2,14.3,11.2c8.3,0,14.4-2.83,14.4-9.79v-.47Z"/><path class="cls-4" d="M311,32.31h19.12c5.17,0,9.3,2.07,9.3,8.16s-4.27,8.12-9.4,8.09h-2.79l13.19,9.14h-3.24l-12.92-9.06H313.06v9.06h-2Zm19,14.29c4,0,7.3-1.52,7.3-6.13s-3.13-6.16-7.17-6.16H313.06V46.6Z"/><path class="cls-4" d="M369.78,31.77C380.42,31.77,386,37.46,386,45s-5.55,13.23-16.19,13.23S353.59,52.54,353.59,45,359.14,31.77,369.78,31.77Zm0,24.44c9.4,0,14.12-4.79,14.12-11.2s-4.72-11.24-14.12-11.24S355.66,38.55,355.66,45,360.41,56.2,369.78,56.2Z"/><path class="cls-4" d="M427.78,32.31h2V47.54c0,7.51-4.82,10.7-14.47,10.7S400.87,55,400.87,47.54V32.31h2V47.54c0,6.35,4.48,8.67,12.44,8.67s12.43-2.32,12.43-8.67Z"/><path class="cls-4" d="M445.4,57.69V32.31h18c5.55,0,10.37,2.25,10.37,9s-4.82,9-10.37,9h-16v7.43Zm2-23.39V48.23h16.15c4.48,0,8.16-1.74,8.16-7s-3.69-7-8.16-7Z"/></svg>